<svg id="Lager_1" data-name="Lager 1" xmlns="http://www.w3.org/2000/svg" viewBox="0 0 664.03 208.93"><defs><style>.cls-1{fill:#8086f2;}.cls-2{fill:#dcdef2;}.cls-3{font-size:39px;fill:#d90416;font-family:RobotoMonoForPowerline-Medium, Roboto Mono Medium for Powerline;font-weight:500;letter-spacing:0.26em;}</style></defs><title>logo</title><path class="cls-1" d="M-161.92-188.63h960v560h-960Z"/><path class="cls-2" d="M17.55,78s4.39,4.2,5.26,8.4V98.2c0,3.37-1.75,9.25-1.75,13.45a21.78,21.78,0,0,0,1.75,9.24c.88,2.52.88,2.52.88,6.72s-.88,20.17-.88,20.17l-.87,12.61,2.63,5.88,3.51-3.36a23.53,23.53,0,0,0,2.63,5c1.76,2.52,8.78,5,8.78,5l8.77,2.52,28.08-10.92A28.56,28.56,0,0,0,82.48,168c2.63.84,11.41,5,15.8,5.88s7,1.68,10.52,1.68A24.21,24.21,0,0,0,119.33,173a77,77,0,0,0,7.9-2.52L129,160.39l-21.06-13.45-4.39,3.36s-1.76-14.28-2.63-21.85-2.63-17.64-2.63-17.64l2.63-1.68s-1.76-13.45-2.63-16.81C98.28,89,100,80.56,100,78.88s.88-6.72.88-6.72V68l-6.14-2.52-7,2.52-12.29-5L64.05,68.79l.88,6.73h19.3l7.9,5v5L89.5,88.12s-.88,8.4-.88,14.29c-.88,5.88-.88,12.6-1.75,19.32a86.92,86.92,0,0,1-5.27,22.69s-10.53,5.88-15.79,8.4a54.78,54.78,0,0,1-14.92,2.52l-12.28-5c-1.76-10.92-3.51-20.16-4.39-27.73-.88-2.52-.88-3.36,0-6.72,0-2.52,1.75-11.76,1.75-11.76l-2.63-2.52S35.1,91.48,36,88.12s.88-6.72,1.76-9.24a17.57,17.57,0,0,1,.88-5L36.85,68s-7-2.52-10.53-3.36c-2.63-.84-7-1.69-7-1.69h-7a49.3,49.3,0,0,0-7,.84L0,68.8a11.91,11.91,0,0,0,1.75,3.36l.88,1.68,2.63.84,3.51,4.2A24.1,24.1,0,0,0,14.91,78c0,.84,2.64,0,2.64,0M223,161.38a10.69,10.69,0,0,1-2.63,1.68,24.1,24.1,0,0,1-6.14.84l-3.51-4.2a47.65,47.65,0,0,0,1.75-16.81c-1.75-8.4-7.89-19.32-7.89-19.32L219.45,111S223,100,223,98.36c.88-1.68-.87-6.73-.87-10.93V81.55L209.8,68.11S198.39,64.75,194,63.9a26.81,26.81,0,0,0-8.78,0l-3.51-4.2-2.63,3.37s-14.92-1.69-20.18-1.69-8.77.84-12.29.84c-3.51.84-8.77,1.68-8.77,1.68H136.1a11,11,0,0,0,0,5.89,25.93,25.93,0,0,0,1.75,5l15.8,4.2,1.75-2.52h1.76a47.16,47.16,0,0,0,.87,8.4,33.17,33.17,0,0,0,.88,7.56L155.4,99.2s2.63,16,2.63,21c0,5.88-.88,7.57-.88,7.57l2.64,5L157.15,158l-18.42,5v7.56l6.14,4.2s14.92-2.52,20.18-2.52a53.56,53.56,0,0,1,8.78.84l1.75-1.68a11.08,11.08,0,0,0,4.39.84,16,16,0,0,0,4.39.84l5.26-5L187,165.58v-2.52h-7c-2.63,0-8.78-.84-8.78-.84l-2.63-2.52V140.37h.88v-1.68h.88v-8.4l-.88.84-.88-9.25,1.76-2.52,19.3,4.2,10.53,9.25,2.63,12.6s-4.39,5-.88,15.13a40.8,40.8,0,0,0,7,13.44l2.64-2.52,3.51,3.36,2.63-1.68a19.57,19.57,0,0,0,8.77,1.68L230,163.89l-7-2.51ZM201,106.76s-9.65,2.52-12.29,3.36-3.51.84-5.26,1.68h-2.63l-.88,2.52-4.39-5h-5.26s-.88-10.08-.88-15.13a114.16,114.16,0,0,0-.88-12.6l1.76-.84s6.14-.84,7.89-.84c2.63,0,8.78-.84,8.78-.84l1.75.84,7.9-.84,8.77,7.56a18.52,18.52,0,0,0-.87,3.36,8.21,8.21,0,0,1-.88,2.52l1.75,1.69v4.2l-4.38,8.4ZM347.47,89.3a108.93,108.93,0,0,1-.88-10.93,41,41,0,0,1-.88-7.56l-8.77-10.92a20.64,20.64,0,0,1-3.51-5C331.67,51.49,329,44.76,329,44.76l-7.89-2.52h-3.51c-1.76,0-3.51-.84-6.15-.84h-4.38c-.88.84-1.76,0-3.51.84-1.76,0-5.27,1.68-8.78,3.36s-7,5.89-8.77,6.73a33.65,33.65,0,0,0-2.64,3.36h-5.26l-1.75-3.36,4.38-21.85-2.63-7.56L280.78,12l-2.63-5a37.54,37.54,0,0,1-1.75-4.2s-8.78-.84-14.92-.84c-9.65-.84-15.8-2.52-17.55-1.68-2.63.84-3.51,2.52-5.27,5-.87,2.52-1.75,5-1.75,5s2.63,5,7,7.57,6.14,3.36,8.77,4.2,7,1.68,7,1.68,2.64,10.08,3.51,15.12S265,46.45,265,49c0,3.36-.88,13.44-1.76,21.84a138.32,138.32,0,0,0-.87,17.65,72.13,72.13,0,0,0,1.75,15.12c.88,4.21,1.76,6.73,1.76,10.93.87,4.2,0,10.08-.88,15.12,0,5-1.75,17.65-1.75,17.65h9.65l4.39-4.2h7.89l3.51,5h31.59s7-4.2,11.41-10.08c4.38-5,6.14-8.41,8.77-14.29a139.64,139.64,0,0,0,6.14-17.65c.88-5.88,2.64-15.12,2.64-15.12l-1.76-1.68Zm-19.3,19.32c-.88,4.21-1.76,9.25-1.76,9.25a51.42,51.42,0,0,0-4.39,5,49.09,49.09,0,0,0-4.38,6.72,15.14,15.14,0,0,0-5.27,3.36,10.28,10.28,0,0,0-3.51,3.36,13,13,0,0,1-6.14-1.68c-2.64-1.68-7.9-4.2-14-9.24-7-4.2-11.41-11.76-11.41-11.76a11.8,11.8,0,0,0,.88-5c0-3.36-.88-2.52-.88-5.88s0-5,1.76-11.76,2.63-10.09,7.89-18.49c5.27-9.24,8.78-12.6,8.78-12.6v-.84h4.38c1.76,0,1.76-.84,4.39-.84s.88.84,5.27.84c4.38.84,4.38,0,4.38,0s2.64,4.2,5.27,7.56a42.3,42.3,0,0,1,5.26,6.72,22.51,22.51,0,0,0,.88,5,62.28,62.28,0,0,0,.88,7.57,8.21,8.21,0,0,1-.88,2.52s.88,2.52,1.76,5.88,1.75,6.72,1.75,6.72a41.45,41.45,0,0,1-.87,7.56Zm74.72-39.44s-2.64,2.52-2.64,3.36c-.87.84-1.75.84-2.63,1.68A6.81,6.81,0,0,1,395,75.9l-5.27,4.2h-7.89L377.44,70c-.88-1.68-1.76-2.52-1.76-4.2a70.76,70.76,0,0,1,.88-11.77,53.26,53.26,0,0,1,1.76-7.56l7-5c3.51-1.68,8.77-5,11.4-5.88s3.51-.84,4.39-1.68h1.76V33c0-.84.87-.84,2.63-.84h6.14c2.63,0,2.63.84,5.27.84h10.53c1.75.85,5.26,1.69,7,2.53s14,4.2,14,4.2a20.64,20.64,0,0,1,3.51,5,53.16,53.16,0,0,0,4.39,5s.88,10.08.88,12.6c0,1.68.88,14.29.88,15.13v16h-1.76a43.29,43.29,0,0,1,.88,6.72,30.43,30.43,0,0,0,.88,6.72,2.55,2.55,0,0,1-.88,1.68,2.55,2.55,0,0,0-.88,1.68l4.39,4.2a23,23,0,0,0,3.51,4.2,12.24,12.24,0,0,0,4.39-.84c2.63,0,7-.84,7.89-.84h2.64s0,6.73.87,10.09a44.42,44.42,0,0,0,.88,7.56l-7.9,8.4a24.1,24.1,0,0,0-6.14.84,70.83,70.83,0,0,0-7.89.84l-7.9-5c-2.63-1.68-7-5-7-5L431,143.12l-13.17,4.2H402.89c-5.27,0-8.78,0-12.29-.84a95.29,95.29,0,0,1-9.65-.84s-4.39-5-6.14-6.72a61.7,61.7,0,0,1-4.39-5s-1.76-8.4-2.63-15.13a59,59,0,0,1,0-13.44,63.22,63.22,0,0,1,3.51-5.88c1.75-2.52,4.38-6.72,4.38-6.72s13.17-4.21,16.68-5S397.62,86,400.25,86s1.76,0,6.15-.84c3.51-.84,8.77-3.36,12.28-5,2.63-1.68,4.39-2.52,5.26-3.36l1.76-1.68h2.63c1.76,0,4.39-1.68,7-2.52a9.09,9.09,0,0,1,3.51-.84l2.63-2.52a10.91,10.91,0,0,0,2.64-1.68V59.93a51.06,51.06,0,0,0-10.53-5.88c-6.14-2.52-9.65-4.2-12.29-5-3.51-.84-4.38-1.68-7-1.68-3.51,0-6.14.84-7,1.68A12.84,12.84,0,0,0,402,50.69c-.88.84-1.76.84-2.63,2.52s-1.76,2.52-1.76,3.36a.85.85,0,0,1-.88.84,17.24,17.24,0,0,0,.88,5c.88,2.52,3.51,5,3.51,5.89a3.12,3.12,0,0,1,1.76.84m-5.27,31.93-13.16,8.4.88,12.6,5.26,7.57h23.69a24.42,24.42,0,0,0,7-2.52c2.64-.84,7-2.52,7.9-2.52h.88L438,112a47.49,47.49,0,0,1-.87-8.4v-8.4h-7s-5.27,1.68-9.66,2.52-3.51,1.68-7,2.52-5.26,0-7.89,0h-9.65M497.13,31.39l-11.4,9.25,1.75,5.88a35.8,35.8,0,0,1,5.27,1.68c2.63.84,4.38.84,6.14,1.68a9.17,9.17,0,0,1,2.63.84l2.63,2.52a51.9,51.9,0,0,0-1.75,5.88V60L505,66.69l2.63,5.88h-6.14v7.56l5.27,6.72A34.52,34.52,0,0,1,505,96.94c-1.75,5-3.51,6.72-3.51,6.72l1.76,1.68s-2.64,9.24-2.64,10.08v.84l2.64,4.21a45.36,45.36,0,0,0-.88,5.88v3.36l-10.53,5-5.27,10.08a40.9,40.9,0,0,0,7,2.52c3.51.85,4.39,1.69,8.78,1.69,4.39-.84,6.14-2.53,6.14-2.53s3.51.84,6.14,1.69,6.15,1.68,6.15,1.68V149l1.75,1.68,2.63-4.2H527c1.75.84,8.77,1.68,8.77,1.68L541,144v-5l-1.76-1.68a12.23,12.23,0,0,1-2.63-4.2s-2.63.84-4.39,0c-1.75,0-9.65-3.36-9.65-3.36s-1.75-23.53-1.75-27.73-1.76-21-1.76-21l1.76-1.68s-.88-10.08-1.76-11.76V64.17a3.59,3.59,0,0,1,.88-2.52s5.26,6.72,7.89,10.92,7,13.44,7.9,16.81a79.83,79.83,0,0,1,4.39,9.24c1.75,2.52,5.26,8.4,5.26,8.4a131.78,131.78,0,0,0-.87-15.12c0-5.88-2.64-10.93-3.51-14.29s-5.27-11.76-5.27-11.76L537.5,60l-8.78-8.41,3.51-10.08-6.14-5.88h-3.51c-2.63,0-4.39-.84-6.14-.84a9.09,9.09,0,0,0-3.51-.84l-1.76,1.68s-4.39-.84-7.89-1.68c-1.76-1.69-6.15-2.53-6.15-2.53m50,74s5.26,2.53,7,2.53h6.14v.84h7.9v7.56l3.51,5L570,123v.84h.88l.88,16.81a15.79,15.79,0,0,0-2.64,3.36,48.78,48.78,0,0,1-2.63,4.2,18.15,18.15,0,0,1-7-1.68,12.75,12.75,0,0,1-5.26-5v-5l-3.51-4.21h-3.51V123l3.51-3.36s-1.76-2.52-2.64-4.2l-1.75-3.36A33.62,33.62,0,0,1,548,106.2a.84.84,0,0,1-.87-.85m13.87-.71h6.15V97.92c0-4.2.87-8.4.87-10.92s-.87-3.36-.87-5V77.75c.87-2.52,1.75-7.56,2.63-9.24v-4.2H568l1.76-.84a25.7,25.7,0,0,0-.88-5.88,17.24,17.24,0,0,1-.88-5l1.76-1.68,1.75-1.69,7.9,1.69a17.84,17.84,0,0,0,4.39-4.21c1.75-2.52,2.63-4.2,3.51-5a4,4,0,0,0,.87-2.52A52.53,52.53,0,0,0,583,35.74a23.69,23.69,0,0,1-4.39-3.36h-4.39c-3.51.84-7,.84-10.52,1.68-3.51,0-4.39.84-7,0l-5.27-1.68s-5.26,1.68-7,2.52c-1.76,0-4.39,1.68-4.39,1.68L538.2,43.3l3.51,5s2.63.84,6.14,1.69A37.14,37.14,0,0,0,554,51.71l.88-.84,1.76,1.68,1.75,1.68a67.18,67.18,0,0,1,.88,10.08c.88,5,1.75,10.08,1.75,12.61s.88,2.52,0,5C559.26,82.8,557.5,92,557.5,92s.88,2.52,1.76,5.88l1.75,6.72"/><path d="M224.42,144.23,664,158.51v50.42L224.42,194.64V144.23Z"/><g id="Lager_2" data-name="Lager 2"><text class="cls-3" transform="matrix(1.18, 0.04, -0.04, 1, 236.48, 182.21)">QUIZMASTERS</text></g></svg>